<svg width="212" height="37" viewBox="0 0 212 37" fill="none" xmlns="http://www.w3.org/2000/svg">
<path d="M27.0726 36.4035H19.4146L34.0663 8.64018V23.1493L27.0746 36.3966L27.0726 36.4035ZM12.618 36.4035H7.81658L5.97074 34.46L23.4775 1.28516H27.1078L29.6975 4.00809L12.618 36.3983V36.4035ZM1.6037 29.8571L0.865234 29.0759V16.7695L9.02975 1.29889H16.6878L1.6125 29.8657L1.6037 29.8571Z" fill="#00B45A"/>
<path d="M49.7822 0.414062H72.1641L77.2625 5.51244V15.5053L75.2232 17.5956L78.843 21.2664V30.5965L73.3368 36.1027H49.7822V0.414062ZM68.5935 15.3576L70.4289 13.5222V8.01592L68.6445 6.23149H56.5631V15.3576H68.5935ZM69.8241 30.3011L72.0164 28.1088V23.1019L69.8189 20.9096H56.5631V30.2906L69.8241 30.3011ZM83.6865 10.7128H89.9065V14.9444L93.9852 10.7128H101.225V16.423H95.3618L90.4198 21.5214V36.1027H83.6865V10.7128ZM102.754 30.9024V16.0151L108 10.7128H122.327L127.629 16.0151V25.6511H109.484V28.914L111.116 30.5965H119.428L120.957 29.0142V27.6886H127.585V31.0044L122.536 36.1027H107.904L102.754 30.9024ZM120.905 20.9605V17.9947L119.171 16.2103H111.218L109.484 17.9947V20.9517L120.905 20.9605ZM132.478 30.9024V16.0151L137.729 10.7128H152.056L157.358 16.0151V25.6511H139.208V28.914L140.839 30.5965H149.15L150.679 29.0142V27.6886H157.307V31.0044L152.26 36.1027H137.627L132.478 30.9024ZM150.628 20.9605V17.9947L148.895 16.2103H140.941L139.208 17.9947V20.9517L150.628 20.9605ZM160.672 30.9024L174.795 16.27V16.1681H161.182V10.7181H183.509V15.9184L169.39 30.5455V30.6527H183.513V36.1027H160.672V30.9024ZM187.082 30.9024V16.0151L192.333 10.7128H206.659L211.962 16.0151V25.6511H193.812V28.914L195.443 30.5965H203.753L205.283 29.0142V27.6886H211.902V31.0044L206.863 36.1027H192.231L187.082 30.9024ZM205.232 20.9605V17.9947L203.498 16.219H195.552L193.812 17.9947V20.9517L205.232 20.9605Z" fill="white"/>
</svg>
