<svg width="16" height="16" viewBox="0 0 16 16" fill="none" xmlns="http://www.w3.org/2000/svg">
<g clip-path="url(#clip0_17096_103072)">
<path d="M0 0H16V16H0V0Z" fill="#03224F"/>
<path opacity="0.3" d="M5.33301 10.666H13.333V2.66602H5.33301V10.666ZM6.66634 3.99935H11.9997V5.33268H6.66634V3.99935ZM6.66634 5.99935H11.9997V7.33268H6.66634V5.99935ZM6.66634 7.99935H9.33301V9.33268H6.66634V7.99935Z" fill="#00B45A"/>
<path d="M2.66634 14.6673H11.9997V13.334H2.66634V4.00065H1.33301V13.334C1.33301 14.0673 1.93301 14.6673 2.66634 14.6673ZM3.99967 2.66732V10.6673C3.99967 11.4007 4.59967 12.0007 5.33301 12.0007H13.333C14.0663 12.0007 14.6663 11.4007 14.6663 10.6673V2.66732C14.6663 1.93398 14.0663 1.33398 13.333 1.33398H5.33301C4.59967 1.33398 3.99967 1.93398 3.99967 2.66732ZM13.333 10.6673H5.33301V2.66732H13.333V10.6673ZM6.66634 6.00065H11.9997V7.33398H6.66634V6.00065ZM6.66634 8.00065H9.33301V9.33398H6.66634V8.00065ZM6.66634 4.00065H11.9997V5.33398H6.66634V4.00065Z" fill="#00B45A"/>
</g>
<defs>
<clipPath id="clip0_17096_103072">
<rect width="16" height="16" fill="white"/>
</clipPath>
</defs>
</svg>
