<svg width="25" height="25" viewBox="0 0 25 25" fill="none" xmlns="http://www.w3.org/2000/svg">
<path d="M17.5 19.5H19.5V21.5H17.5V19.5ZM1.5 19.5C1.5 20.6 2.4 21.5 3.5 21.5H15.5V11.5H1.5V19.5ZM6 16.29L7.79 18.44L10.29 15.22L13.5 19.5H3.5L6 16.29ZM17.5 3.5H19.5V5.5H17.5V3.5ZM21.5 11.5H23.5V13.5H21.5V11.5ZM21.5 15.5H23.5V17.5H21.5V15.5ZM3.5 3.5C2.5 3.5 1.5 4.5 1.5 5.5H3.5V3.5ZM21.5 7.5H23.5V9.5H21.5V7.5ZM13.5 3.5H15.5V5.5H13.5V3.5ZM21.5 21.5C22.5 21.5 23.5 20.5 23.5 19.5H21.5V21.5ZM1.5 7.5H3.5V9.5H1.5V7.5ZM9.5 3.5H11.5V5.5H9.5V3.5ZM5.5 3.5H7.5V5.5H5.5V3.5ZM21.5 3.5V5.5H23.5C23.5 4.5 22.5 3.5 21.5 3.5Z" fill="white"/>
</svg>
