<svg width="17" height="17" viewBox="0 0 17 17" fill="none" xmlns="http://www.w3.org/2000/svg">
<g clip-path="url(#clip0_17096_103030)">
<path d="M0.191406 0.996094H16.1914V16.9961H0.191406V0.996094Z" fill="#03224F"/>
<path d="M6.9984 12.2155L5.69173 10.6421L3.8584 12.9955H11.1917L8.83173 9.85547L6.9984 12.2155Z" fill="#00B45A"/>
<path opacity="0.3" d="M11.1917 12.9961H3.8584L5.69173 10.6428L6.9984 12.2161L8.83173 9.85609L11.1917 12.9961ZM11.5251 5.66276H9.52506V4.99609H2.8584V14.3294H12.1917V7.66276H11.5251V5.66276Z" fill="#00B45A"/>
<path d="M13.5244 3.66211V1.66211H12.1911V3.66211H10.1911V4.99544H12.1911V6.98878H13.5244V4.99544H15.5244V3.66211H13.5244ZM12.1911 14.3288H2.85775V4.99544H9.52441V3.66211H2.85775C2.12441 3.66211 1.52441 4.26211 1.52441 4.99544V14.3288C1.52441 15.0621 2.12441 15.6621 2.85775 15.6621H12.1911C12.9244 15.6621 13.5244 15.0621 13.5244 14.3288V7.66211H12.1911V14.3288Z" fill="#00B45A"/>
</g>
<defs>
<clipPath id="clip0_17096_103030">
<rect width="16" height="16" fill="white" transform="translate(0.191406 0.996094)"/>
</clipPath>
</defs>
</svg>
