<svg width="25" height="25" viewBox="0 0 25 25" fill="none" xmlns="http://www.w3.org/2000/svg">
<g clip-path="url(#clip0_19537_2599)">
<path opacity="0.3" d="M6.5 4.5V20.5H18.1L15.25 17.65C14.42 18.2 13.46 18.48 12.5 18.48C11.22 18.48 9.95 17.99 8.97 17.02C7.02 15.07 7.02 11.91 8.97 9.97C9.95 8.99 11.22 8.5 12.5 8.5C13.78 8.5 15.05 8.99 16.03 9.96C17.74 11.67 17.95 14.3 16.67 16.24L18.5 18.08V9.5L13.5 4.5H6.5Z" fill="white"/>
<path d="M14.5 2.5H6.5C5.4 2.5 4.51 3.4 4.51 4.5L4.5 20.5C4.5 21.6 5.39 22.5 6.49 22.5H18.5C19.6 22.5 20.5 21.6 20.5 20.5V8.5L14.5 2.5ZM18.5 18.08L16.66 16.24C17.94 14.3 17.73 11.67 16.02 9.96C15.05 8.99 13.78 8.5 12.5 8.5C11.22 8.5 9.95 8.99 8.97 9.96C7.02 11.91 7.02 15.07 8.97 17.01C9.94 17.98 11.22 18.47 12.5 18.47C13.46 18.47 14.42 18.19 15.25 17.64L18.1 20.5H6.5V4.5H13.5L18.5 9.5V18.08ZM15.49 13.49C15.49 14.29 15.18 15.04 14.61 15.6C14.05 16.16 13.3 16.48 12.5 16.48C11.7 16.48 10.95 16.17 10.39 15.6C9.83 15.04 9.51 14.29 9.51 13.49C9.51 12.69 9.82 11.94 10.39 11.38C10.96 10.82 11.7 10.5 12.5 10.5C13.3 10.5 14.05 10.81 14.61 11.38C15.18 11.94 15.49 12.69 15.49 13.49Z" fill="white"/>
</g>
<defs>
<clipPath id="clip0_19537_2599">
<rect width="24" height="24" fill="white" transform="translate(0.5 0.5)"/>
</clipPath>
</defs>
</svg>
