<svg width="16" height="16" viewBox="0 0 16 16" fill="none" xmlns="http://www.w3.org/2000/svg">
<g clip-path="url(#clip0_17096_103084)">
<path d="M0 0H16V16H0V0Z" fill="#03224F"/>
<path opacity="0.3" d="M11.9997 3.99935C12.3679 3.99935 12.6663 3.70087 12.6663 3.33268C12.6663 2.96449 12.3679 2.66602 11.9997 2.66602C11.6315 2.66602 11.333 2.96449 11.333 3.33268C11.333 3.70087 11.6315 3.99935 11.9997 3.99935Z" fill="#00B45A"/>
<path opacity="0.3" d="M3.99967 8.66732C4.36786 8.66732 4.66634 8.36884 4.66634 8.00065C4.66634 7.63246 4.36786 7.33398 3.99967 7.33398C3.63148 7.33398 3.33301 7.63246 3.33301 8.00065C3.33301 8.36884 3.63148 8.66732 3.99967 8.66732Z" fill="#00B45A"/>
<path opacity="0.3" d="M11.9997 13.347C12.3679 13.347 12.6663 13.0485 12.6663 12.6803C12.6663 12.3121 12.3679 12.0137 11.9997 12.0137C11.6315 12.0137 11.333 12.3121 11.333 12.6803C11.333 13.0485 11.6315 13.347 11.9997 13.347Z" fill="#00B45A"/>
<path d="M12 10.7207C11.4933 10.7207 11.04 10.9207 10.6933 11.234L5.94 8.46732C5.97333 8.31398 6 8.16065 6 8.00065C6 7.84065 5.97333 7.68732 5.94 7.53398L10.64 4.79398C11 5.12732 11.4733 5.33398 12 5.33398C13.1067 5.33398 14 4.44065 14 3.33398C14 2.22732 13.1067 1.33398 12 1.33398C10.8933 1.33398 10 2.22732 10 3.33398C10 3.49398 10.0267 3.64732 10.06 3.80065L5.36 6.54065C5 6.20732 4.52667 6.00065 4 6.00065C2.89333 6.00065 2 6.89398 2 8.00065C2 9.10732 2.89333 10.0007 4 10.0007C4.52667 10.0007 5 9.79398 5.36 9.46065L10.1067 12.234C10.0733 12.374 10.0533 12.5207 10.0533 12.6673C10.0533 13.7407 10.9267 14.614 12 14.614C13.0733 14.614 13.9467 13.7407 13.9467 12.6673C13.9467 11.594 13.0733 10.7207 12 10.7207ZM12 2.66732C12.3667 2.66732 12.6667 2.96732 12.6667 3.33398C12.6667 3.70065 12.3667 4.00065 12 4.00065C11.6333 4.00065 11.3333 3.70065 11.3333 3.33398C11.3333 2.96732 11.6333 2.66732 12 2.66732ZM4 8.66732C3.63333 8.66732 3.33333 8.36732 3.33333 8.00065C3.33333 7.63398 3.63333 7.33398 4 7.33398C4.36667 7.33398 4.66667 7.63398 4.66667 8.00065C4.66667 8.36732 4.36667 8.66732 4 8.66732ZM12 13.3473C11.6333 13.3473 11.3333 13.0473 11.3333 12.6807C11.3333 12.314 11.6333 12.014 12 12.014C12.3667 12.014 12.6667 12.314 12.6667 12.6807C12.6667 13.0473 12.3667 13.3473 12 13.3473Z" fill="#00B45A"/>
</g>
<defs>
<clipPath id="clip0_17096_103084">
<rect width="16" height="16" fill="white"/>
</clipPath>
</defs>
</svg>
