<svg width="16" height="16" viewBox="0 0 16 16" fill="none" xmlns="http://www.w3.org/2000/svg">
<g clip-path="url(#clip0_17096_103068)">
<path d="M0 0H16V16H0V0Z" fill="#03224F"/>
<path d="M12.6663 4.66602H7.33301V8.66602H12.6663V4.66602ZM11.333 7.33268H8.66634V5.99935H11.333V7.33268Z" fill="#00B45A"/>
<path opacity="0.3" d="M8.66699 6H11.3337V7.33333H8.66699V6Z" fill="#00B45A"/>
<path d="M14.0003 2H2.00033C1.26699 2 0.666992 2.6 0.666992 3.33333V12.6667C0.666992 13.4 1.26699 13.9867 2.00033 13.9867H14.0003C14.7337 13.9867 15.3337 13.4 15.3337 12.6667V3.33333C15.3337 2.6 14.7337 2 14.0003 2ZM14.0003 12.6733H2.00033V3.32H14.0003V12.6733Z" fill="#00B45A"/>
</g>
<defs>
<clipPath id="clip0_17096_103068">
<rect width="16" height="16" fill="white"/>
</clipPath>
</defs>
</svg>
