<svg width="25" height="25" viewBox="0 0 25 25" fill="none" xmlns="http://www.w3.org/2000/svg">
<g clip-path="url(#clip0_19518_2613)">
<path opacity="0.3" d="M12.5 4.5C8.09 4.5 4.5 8.09 4.5 12.5C4.5 16.91 8.09 20.5 12.5 20.5C16.91 20.5 20.5 16.91 20.5 12.5C20.5 8.09 16.91 4.5 12.5 4.5ZM10.5 17.5L6.5 13.5L7.91 12.09L10.5 14.67L17.09 8.08L18.5 9.5L10.5 17.5Z" fill="white"/>
<path d="M12.5 2.5C6.98 2.5 2.5 6.98 2.5 12.5C2.5 18.02 6.98 22.5 12.5 22.5C18.02 22.5 22.5 18.02 22.5 12.5C22.5 6.98 18.02 2.5 12.5 2.5ZM12.5 20.5C8.09 20.5 4.5 16.91 4.5 12.5C4.5 8.09 8.09 4.5 12.5 4.5C16.91 4.5 20.5 8.09 20.5 12.5C20.5 16.91 16.91 20.5 12.5 20.5ZM17.09 8.08L10.5 14.67L7.91 12.09L6.5 13.5L10.5 17.5L18.5 9.5L17.09 8.08Z" fill="white"/>
</g>
<defs>
<clipPath id="clip0_19518_2613">
<rect width="24" height="24" fill="white" transform="translate(0.5 0.5)"/>
</clipPath>
</defs>
</svg>
