<svg width="16" height="16" viewBox="0 0 16 16" fill="none" xmlns="http://www.w3.org/2000/svg">
<g clip-path="url(#clip0_17096_103052)">
<path d="M16 0H0V16H16V0Z" fill="#03224F"/>
<path opacity="0.3" d="M6.86637 4.88068L6.08637 3.02734C4.6797 3.56734 3.56637 4.68068 3.02637 6.08734L4.8797 6.85401C5.2197 5.93401 5.94637 5.21401 6.86637 4.88068Z" fill="#00B45A"/>
<path opacity="0.3" d="M4.8797 9.14648L3.02637 9.91315C3.56637 11.3132 4.6797 12.4332 6.08637 12.9732L6.86637 11.1198C5.9397 10.7865 5.2197 10.0598 4.8797 9.14648Z" fill="#00B45A"/>
<path opacity="0.3" d="M11.1132 6.84734L12.9665 6.08068C12.4265 4.68068 11.3132 3.56734 9.91315 3.02734L9.14648 4.88068C10.0598 5.22068 10.7798 5.93401 11.1132 6.84734Z" fill="#00B45A"/>
<path opacity="0.3" d="M11.12 9.14062C10.7867 10.054 10.0667 10.7806 9.15332 11.1206L9.91999 12.974C11.32 12.434 12.4333 11.3206 12.9733 9.92062L11.12 9.14062Z" fill="#00B45A"/>
<path d="M7.99967 1.33398C4.31967 1.33398 1.33301 4.32065 1.33301 8.00065C1.33301 11.6807 4.31967 14.6673 7.99967 14.6673C11.6797 14.6673 14.6663 11.6807 14.6663 8.00065C14.6663 4.32065 11.6797 1.33398 7.99967 1.33398ZM9.91301 3.02732C11.313 3.56732 12.4263 4.68065 12.9663 6.08065L11.113 6.84732C10.773 5.94065 10.0597 5.22065 9.14634 4.88732L9.91301 3.02732ZM6.08634 3.02732L6.86634 4.88065C5.94634 5.21398 5.21967 5.94065 4.87967 6.86065L3.02634 6.08732C3.56634 4.68065 4.67967 3.56732 6.08634 3.02732ZM6.08634 12.974C4.68634 12.434 3.56634 11.3207 3.02634 9.91398L4.87967 9.14732C5.21967 10.0673 5.93967 10.7873 6.85967 11.1207L6.08634 12.974ZM5.99967 8.00065C5.99967 6.89398 6.89301 6.00065 7.99967 6.00065C9.10634 6.00065 9.99967 6.89398 9.99967 8.00065C9.99967 9.10732 9.10634 10.0007 7.99967 10.0007C6.89301 10.0007 5.99967 9.10732 5.99967 8.00065ZM9.91967 12.974L9.15301 11.1207C10.0663 10.7807 10.7863 10.0607 11.1197 9.14065L12.973 9.92065C12.433 11.3207 11.3197 12.434 9.91967 12.974Z" fill="#00B45A"/>
</g>
<defs>
<clipPath id="clip0_17096_103052">
<rect width="16" height="16" fill="white"/>
</clipPath>
</defs>
</svg>
