<svg width="17" height="17" viewBox="0 0 17 17" fill="none" xmlns="http://www.w3.org/2000/svg">
<g clip-path="url(#clip0_17096_103034)">
<path d="M0.96875 0.998047H16.9688V16.998H0.96875V0.998047Z" fill="#03224F"/>
<path opacity="0.3" d="M4.30176 13.0517V13.6651H4.91509L10.9551 7.62505L10.3418 7.01172L4.30176 13.0517Z" fill="#00B45A"/>
<path d="M14.7754 5.69138C15.0354 5.43138 15.0354 5.01138 14.7754 4.75138L13.2154 3.19138C13.0821 3.05805 12.9154 2.99805 12.7421 2.99805C12.5688 2.99805 12.4021 3.06471 12.2754 3.19138L11.0554 4.41138L13.5554 6.91138L14.7754 5.69138ZM2.96875 12.498V14.998H5.46875L12.8421 7.62471L10.3421 5.12471L2.96875 12.498ZM4.91542 13.6647H4.30208V13.0514L10.3421 7.01138L10.9554 7.62471L4.91542 13.6647Z" fill="#00B45A"/>
</g>
<defs>
<clipPath id="clip0_17096_103034">
<rect width="16" height="16" fill="white" transform="translate(0.96875 0.998047)"/>
</clipPath>
</defs>
</svg>
