<svg width="16" height="16" viewBox="0 0 16 16" fill="none" xmlns="http://www.w3.org/2000/svg">
<g clip-path="url(#clip0_17096_103092)">
<path d="M0 0H16V16H0V0Z" fill="#03224F"/>
<path d="M13.3763 1.97881H12.7043V0.640625H11.3603V1.97881H4.64027V0.640625H3.29627V1.97881H2.62427C1.88507 1.97881 1.28027 2.58099 1.28027 3.31699V14.0224C1.28027 14.7584 1.88507 15.3606 2.62427 15.3606H13.3763C14.1155 15.3606 14.7203 14.7584 14.7203 14.0224V3.31699C14.7203 2.58099 14.1155 1.97881 13.3763 1.97881ZM13.3763 3.31699V5.32426H2.62427V3.31699H13.3763ZM2.62427 14.0224V6.66244H13.3763V14.0224H2.62427Z" fill="#00B45A"/>
<path opacity="0.3" d="M2.55957 3.19922H13.4396V5.43922H2.55957V3.19922Z" fill="#00B45A"/>
<path opacity="0.3" d="M3.83984 7.03906H5.75984V8.95906H3.83984V7.03906Z" fill="#00B45A"/>
<path opacity="0.3" d="M3.83984 9.2793H5.75984V11.1993H3.83984V9.2793Z" fill="#00B45A"/>
<path opacity="0.3" d="M7.04004 7.03906H8.96004V8.95906H7.04004V7.03906Z" fill="#00B45A"/>
<path opacity="0.3" d="M7.04004 9.2793H8.96004V11.1993H7.04004V9.2793Z" fill="#00B45A"/>
<path opacity="0.3" d="M7.04004 11.5195H8.96004V13.4395H7.04004V11.5195Z" fill="#00B45A"/>
<path opacity="0.3" d="M10.2402 7.03906H12.1602V8.95906H10.2402V7.03906Z" fill="#00B45A"/>
<path opacity="0.3" d="M10.2402 9.2793H12.1602V11.1993H10.2402V9.2793Z" fill="#00B45A"/>
</g>
<defs>
<clipPath id="clip0_17096_103092">
<rect width="16" height="16" fill="white"/>
</clipPath>
</defs>
</svg>
