<svg width="17" height="17" viewBox="0 0 17 17" fill="none" xmlns="http://www.w3.org/2000/svg">
<g clip-path="url(#clip0_17096_103046)">
<path d="M0.666992 0.998047H16.667V16.998H0.666992V0.998047Z" fill="#03224F"/>
<path d="M8.66699 14.998C11.9803 14.998 14.667 12.3114 14.667 8.99805C14.667 5.68471 11.9803 2.99805 8.66699 2.99805H8.00033V5.66471H9.33366V4.38471C11.5937 4.71138 13.3337 6.64471 13.3337 8.99805C13.3337 11.578 11.247 13.6647 8.66699 13.6647C6.08699 13.6647 4.00033 11.578 4.00033 8.99805C4.00033 7.87805 4.39366 6.85138 5.05366 6.05138L8.66699 9.66471L9.60699 8.72471L5.07366 4.19138V4.20471C3.61366 5.29805 2.66699 7.03138 2.66699 8.99805C2.66699 12.3114 5.34699 14.998 8.66699 14.998Z" fill="#00B45A"/>
<path d="M8.66667 12.9974C9.03486 12.9974 9.33333 12.6989 9.33333 12.3307C9.33333 11.9625 9.03486 11.6641 8.66667 11.6641C8.29848 11.6641 8 11.9625 8 12.3307C8 12.6989 8.29848 12.9974 8.66667 12.9974Z" fill="#00B45A"/>
<path d="M12.0007 9.66536C12.3688 9.66536 12.6673 9.36689 12.6673 8.9987C12.6673 8.63051 12.3688 8.33203 12.0007 8.33203C11.6325 8.33203 11.334 8.63051 11.334 8.9987C11.334 9.36689 11.6325 9.66536 12.0007 9.66536Z" fill="#00B45A"/>
<path d="M5.33366 9.66536C5.70185 9.66536 6.00033 9.36689 6.00033 8.9987C6.00033 8.63051 5.70185 8.33203 5.33366 8.33203C4.96547 8.33203 4.66699 8.63051 4.66699 8.9987C4.66699 9.36689 4.96547 9.66536 5.33366 9.66536Z" fill="#00B45A"/>
</g>
<defs>
<clipPath id="clip0_17096_103046">
<rect width="16" height="16" fill="white" transform="translate(0.666992 0.998047)"/>
</clipPath>
</defs>
</svg>
