<svg width="16" height="16" viewBox="0 0 16 16" fill="none" xmlns="http://www.w3.org/2000/svg">
<g clip-path="url(#clip0_17096_103080)">
<path d="M16 0H0V16H16V0Z" fill="#03224F"/>
<path opacity="0.3" d="M12.6663 12.666H3.33301V4.66602H12.6663V12.666ZM11.333 7.99935H4.66634V6.66602H11.333V7.99935ZM8.66634 10.666H4.66634V9.33268H8.66634V10.666Z" fill="#00B45A"/>
<path d="M12.6667 2H3.33333C2.59333 2 2 2.6 2 3.33333V12.6667C2 13.4 2.59333 14 3.33333 14H12.6667C13.4 14 14 13.4 14 12.6667V3.33333C14 2.6 13.4067 2 12.6667 2ZM12.6667 12.6667H3.33333V4.66667H12.6667V12.6667ZM11.3333 8H4.66667V6.66667H11.3333V8ZM8.66667 10.6667H4.66667V9.33333H8.66667V10.6667Z" fill="#00B45A"/>
</g>
<defs>
<clipPath id="clip0_17096_103080">
<rect width="16" height="16" fill="white"/>
</clipPath>
</defs>
</svg>
