<svg width="16" height="16" viewBox="0 0 16 16" fill="none" xmlns="http://www.w3.org/2000/svg">
<g clip-path="url(#clip0_17096_103056)">
<path d="M16 0H0V16H16V0Z" fill="#03224F"/>
<path opacity="0.3" d="M2.66602 12.6673H13.3327V3.33398H2.66602V12.6673ZM8.93935 7.16732L9.87935 8.11398L11.9927 6.00065L12.9393 6.94732L9.87935 10.0007L7.99935 8.10732L8.93935 7.16732ZM3.33268 4.66732H6.66602V6.00065H3.33268V4.66732ZM3.33268 7.33398H6.66602V8.66732H3.33268V7.33398ZM3.33268 10.0007H6.66602V11.334H3.33268V10.0007Z" fill="#00B45A"/>
<path d="M13.333 2H2.66634C1.93301 2 1.33301 2.6 1.33301 3.33333V12.6667C1.33301 13.4 1.93301 14 2.66634 14H13.333C14.0663 14 14.6663 13.4 14.6663 12.6667V3.33333C14.6663 2.6 14.0663 2 13.333 2ZM13.333 12.6667H2.66634V3.33333H13.333V12.6667Z" fill="#00B45A"/>
<path d="M12.94 6.94667L11.9933 6L9.88 8.11333L8.94 7.16667L8 8.10667L9.88 10L12.94 6.94667Z" fill="#00B45A"/>
<path d="M6.66634 4.66602H3.33301V5.99935H6.66634V4.66602Z" fill="#00B45A"/>
<path d="M6.66634 7.33398H3.33301V8.66732H6.66634V7.33398Z" fill="#00B45A"/>
<path d="M6.66634 10H3.33301V11.3333H6.66634V10Z" fill="#00B45A"/>
</g>
<defs>
<clipPath id="clip0_17096_103056">
<rect width="16" height="16" fill="white"/>
</clipPath>
</defs>
</svg>
