<svg width="25" height="25" viewBox="0 0 25 25" fill="none" xmlns="http://www.w3.org/2000/svg">
<path opacity="0.3" d="M5.5 5.5H9.5V11.5H5.5V5.5ZM15.5 13.5H19.5V19.5H15.5V13.5ZM5.5 17.5H9.5V19.5H5.5V17.5ZM15.5 5.5H19.5V7.5H15.5V5.5Z" fill="#00B45A"/>
<path d="M3.5 13.5H11.5V3.5H3.5V13.5ZM5.5 5.5H9.5V11.5H5.5V5.5ZM13.5 21.5H21.5V11.5H13.5V21.5ZM15.5 13.5H19.5V19.5H15.5V13.5ZM13.5 3.5V9.5H21.5V3.5H13.5ZM19.5 7.5H15.5V5.5H19.5V7.5ZM3.5 21.5H11.5V15.5H3.5V21.5ZM5.5 17.5H9.5V19.5H5.5V17.5Z" fill="white"/>
</svg>
