<svg width="20" height="15" viewBox="0 0 20 15" fill="none" xmlns="http://www.w3.org/2000/svg">
<path d="M15.6963 4.06033L12.363 7.67144H14.863C14.863 10.6596 12.6213 13.0881 9.86296 13.0881C9.02129 13.0881 8.22129 12.8624 7.52962 12.4562L6.31295 13.7742C7.33795 14.4784 8.55462 14.8937 9.86296 14.8937C13.5463 14.8937 16.5296 11.6617 16.5296 7.67144H19.0296L15.6963 4.06033ZM4.86296 7.67144C4.86296 4.68325 7.10462 2.25477 9.86296 2.25477C10.7046 2.25477 11.5046 2.48047 12.1963 2.88672L13.413 1.56866C12.388 0.864496 11.1713 0.449219 9.86296 0.449219C6.17962 0.449219 3.19629 3.68116 3.19629 7.67144H0.696289L4.02962 11.2826L7.36296 7.67144H4.86296Z" fill="#00B45A"/>
</svg>
