<svg xmlns="http://www.w3.org/2000/svg" x="0px" y="0px" viewBox="0 0 40 34" enable-background="new 0 0 40 34" aria-hidden="true" style="fill: rgb(255, 255, 255); height: 100%; left: 0px; stroke-width: 0px; top: 0px; width: 100%;"><g><g><circle cx="10.6" cy="10.1" r="1.6"/><path d="M29.5,10.1c0,0.6-0.5,1.1-1.1,1.1H15.7c-0.6,0-1.1-0.5-1.1-1.1l0,0c0-0.6,0.5-1.1,1.1-1.1h12.7C29,9.1,29.5,9.5,29.5,10.1L29.5,10.1z"/></g><g><circle cx="10.6" cy="16.8" r="1.6"/><path d="M29.5,16.8c0,0.6-0.5,1.1-1.1,1.1H15.7c-0.6,0-1.1-0.5-1.1-1.1l0,0c0-0.6,0.5-1.1,1.1-1.1h12.7C29,15.7,29.5,16.2,29.5,16.8L29.5,16.8z"/></g><g><circle cx="10.6" cy="23.4" r="1.6"/><path d="M29.5,23.4c0,0.6-0.5,1.1-1.1,1.1H15.7c-0.6,0-1.1-0.5-1.1-1.1l0,0c0-0.6,0.5-1.1,1.1-1.1h12.7C29,22.4,29.5,22.9,29.5,23.4L29.5,23.4z"/></g></g></svg>